<?xml version="1.0"?>
<svg xmlns="http://www.w3.org/2000/svg" style="display:none">
  <defs>

    <symbol id="i-transistor" viewBox="0 0 24 24" fill="none" stroke="currentColor" stroke-width="1.5" stroke-linecap="round" stroke-linejoin="round">
      <line x1="3" y1="12" x2="11" y2="12"></line>
      <line x1="11" y1="6" x2="11" y2="18"></line>
      <line x1="13" y1="9" x2="13" y2="15"></line>
      <line x1="13" y1="9" x2="20" y2="4"></line>
      <line x1="13" y1="15" x2="20" y2="20"></line>
    </symbol>

    <symbol id="i-fpga" viewBox="0 0 24 24" fill="none" stroke="currentColor" stroke-width="1.5" stroke-linejoin="round">
      <rect x="3" y="3" width="5" height="5"></rect>
      <rect x="9.5" y="3" width="5" height="5"></rect>
      <rect x="16" y="3" width="5" height="5"></rect>
      <rect x="3" y="9.5" width="5" height="5"></rect>
      <rect x="9.5" y="9.5" width="5" height="5"></rect>
      <rect x="16" y="9.5" width="5" height="5"></rect>
      <rect x="3" y="16" width="5" height="5"></rect>
      <rect x="9.5" y="16" width="5" height="5"></rect>
      <rect x="16" y="16" width="5" height="5"></rect>
    </symbol>

    <symbol id="i-chip" viewBox="0 0 24 24" fill="none" stroke="currentColor" stroke-width="1.5" stroke-linecap="round" stroke-linejoin="round">
      <rect x="6" y="6" width="12" height="12" rx="0.5"></rect>
      <line x1="2" y1="9" x2="6" y2="9"></line>
      <line x1="2" y1="12" x2="6" y2="12"></line>
      <line x1="2" y1="15" x2="6" y2="15"></line>
      <line x1="18" y1="9" x2="22" y2="9"></line>
      <line x1="18" y1="12" x2="22" y2="12"></line>
      <line x1="18" y1="15" x2="22" y2="15"></line>
      <line x1="9" y1="2" x2="9" y2="6"></line>
      <line x1="12" y1="2" x2="12" y2="6"></line>
      <line x1="15" y1="2" x2="15" y2="6"></line>
      <line x1="9" y1="18" x2="9" y2="22"></line>
      <line x1="12" y1="18" x2="12" y2="22"></line>
      <line x1="15" y1="18" x2="15" y2="22"></line>
    </symbol>

    <symbol id="i-pcb" viewBox="0 0 24 24" fill="none" stroke="currentColor" stroke-width="1.5" stroke-linecap="round" stroke-linejoin="round">
      <rect x="3" y="3" width="18" height="18" rx="0.5"></rect>
      <circle cx="7" cy="7" r="1.4"></circle>
      <circle cx="17" cy="7" r="1.4"></circle>
      <circle cx="7" cy="17" r="1.4"></circle>
      <circle cx="17" cy="17" r="1.4"></circle>
      <polyline points="7,8.4 7,12 12,12 12,15.6 12,17 11,17"></polyline>
      <polyline points="17,8.4 17,12 13,12"></polyline>
      <polyline points="8.4,17 13,17 14,16 17,16 17,15.6"></polyline>
    </symbol>

    <symbol id="i-drone" viewBox="0 0 24 24" fill="none" stroke="currentColor" stroke-width="1.5" stroke-linecap="round" stroke-linejoin="round">
      <circle cx="6" cy="6" r="2.5"></circle>
      <circle cx="18" cy="6" r="2.5"></circle>
      <circle cx="6" cy="18" r="2.5"></circle>
      <circle cx="18" cy="18" r="2.5"></circle>
      <line x1="7.8" y1="7.8" x2="10" y2="10"></line>
      <line x1="16.2" y1="7.8" x2="14" y2="10"></line>
      <line x1="7.8" y1="16.2" x2="10" y2="14"></line>
      <line x1="16.2" y1="16.2" x2="14" y2="14"></line>
      <rect x="10" y="10" width="4" height="4"></rect>
    </symbol>

    <symbol id="i-satellite" viewBox="0 0 24 24" fill="none" stroke="currentColor" stroke-width="1.5" stroke-linecap="round" stroke-linejoin="round">
      <rect x="9" y="9" width="6" height="6"></rect>
      <rect x="1" y="10.5" width="6" height="3"></rect>
      <rect x="17" y="10.5" width="6" height="3"></rect>
      <line x1="3.5" y1="10.5" x2="3.5" y2="13.5"></line>
      <line x1="20.5" y1="10.5" x2="20.5" y2="13.5"></line>
      <line x1="12" y1="3" x2="12" y2="9"></line>
      <circle cx="12" cy="3" r="1"></circle>
    </symbol>

    <symbol id="i-cubesat" viewBox="0 0 24 24" fill="none" stroke="currentColor" stroke-width="1.5" stroke-linecap="round" stroke-linejoin="round">
      <polyline points="4,7 12,3 20,7 20,17 12,21 4,17 4,7 12,11 20,7"></polyline>
      <line x1="12" y1="11" x2="12" y2="21"></line>
      <line x1="4" y1="12" x2="20" y2="12"></line>
    </symbol>

    <symbol id="i-antenna" viewBox="0 0 24 24" fill="none" stroke="currentColor" stroke-width="1.5" stroke-linecap="round" stroke-linejoin="round">
      <line x1="12" y1="22" x2="12" y2="13"></line>
      <path d="M 9 13 A 3 3 0 0 1 15 13"></path>
      <path d="M 6 13 A 6 6 0 0 1 18 13"></path>
      <path d="M 3 13 A 9 9 0 0 1 21 13"></path>
    </symbol>

    <symbol id="i-neural" viewBox="0 0 24 24" fill="none" stroke="currentColor" stroke-width="1.5" stroke-linecap="round" stroke-linejoin="round">
      <circle cx="4" cy="6" r="1.5"></circle>
      <circle cx="4" cy="12" r="1.5"></circle>
      <circle cx="4" cy="18" r="1.5"></circle>
      <circle cx="12" cy="9" r="1.5"></circle>
      <circle cx="12" cy="15" r="1.5"></circle>
      <circle cx="20" cy="12" r="1.5"></circle>
      <line x1="5.5" y1="6" x2="10.5" y2="9"></line>
      <line x1="5.5" y1="12" x2="10.5" y2="9"></line>
      <line x1="5.5" y1="12" x2="10.5" y2="15"></line>
      <line x1="5.5" y1="18" x2="10.5" y2="15"></line>
      <line x1="13.5" y1="9" x2="18.5" y2="12"></line>
      <line x1="13.5" y1="15" x2="18.5" y2="12"></line>
    </symbol>

    <symbol id="i-wave" viewBox="0 0 24 24" fill="none" stroke="currentColor" stroke-width="1.5" stroke-linecap="round" stroke-linejoin="round">
      <polyline points="2,16 6,16 6,8 10,8 10,16 14,16 14,8 18,8 18,16 22,16"></polyline>
    </symbol>

    <symbol id="i-arrow" viewBox="0 0 24 24" fill="none" stroke="currentColor" stroke-width="1.5" stroke-linecap="round" stroke-linejoin="round">
      <line x1="4" y1="12" x2="20" y2="12"></line>
      <polyline points="14,6 20,12 14,18"></polyline>
    </symbol>

    <symbol id="i-mail" viewBox="0 0 24 24" fill="none" stroke="currentColor" stroke-width="1.5" stroke-linecap="round" stroke-linejoin="round">
      <rect x="3" y="6" width="18" height="13" rx="1"></rect>
      <polyline points="3,7 12,14 21,7"></polyline>
    </symbol>

    <symbol id="i-linkedin" viewBox="0 0 24 24" fill="none" stroke="currentColor" stroke-width="1.5" stroke-linecap="round" stroke-linejoin="round">
      <rect x="3" y="3" width="18" height="18" rx="1"></rect>
      <line x1="8" y1="10" x2="8" y2="17"></line>
      <circle cx="8" cy="7" r="0.8" fill="currentColor"></circle>
      <path d="M12 17 L12 10 M12 13 A3 3 0 0 1 18 13 L18 17"></path>
    </symbol>

    <symbol id="i-phone" viewBox="0 0 24 24" fill="none" stroke="currentColor" stroke-width="1.5" stroke-linecap="round" stroke-linejoin="round">
      <path d="M5 4 L9 4 L11 9 L8 11 A10 10 0 0 0 13 16 L15 13 L20 15 L20 19 A2 2 0 0 1 18 21 A16 16 0 0 1 3 6 A2 2 0 0 1 5 4 Z"></path>
    </symbol>

    <symbol id="i-pin" viewBox="0 0 24 24" fill="none" stroke="currentColor" stroke-width="1.5" stroke-linecap="round" stroke-linejoin="round">
      <path d="M12 22 C7 16 4 13 4 9 A8 8 0 0 1 20 9 C20 13 17 16 12 22 Z"></path>
      <circle cx="12" cy="9" r="2.5"></circle>
    </symbol>

  </defs>
</svg>